<?xml version="1.0" encoding="utf-8"?>
<!-- Generator: Adobe Illustrator 23.0.6, SVG Export Plug-In . SVG Version: 6.00 Build 0)  -->
<svg version="1.1" id="Layer_1" xmlns="http://www.w3.org/2000/svg" xmlns:xlink="http://www.w3.org/1999/xlink" x="0px" y="0px"
	 viewBox="0 0 224.3 55" style="enable-background:new 0 0 224.3 55;" xml:space="preserve">
<style type="text/css">
	.st0{fill:#FE0000;}
	.st1{fill:#00B050;}
</style>
<path class="st0" d="M28.2,1.6c10.7,0,20.4,6.5,24.2,16.1c1.6,4,2.1,8.1,1.7,12.4c-0.8,9.2-5.5,15.9-13.3,20.5
	c-3.4,2-7.1,2.9-11,3.1c-4.5,0.2-8.9-0.4-13-2.4C9.9,47.9,5.2,42.7,3,35.4c-1.1-3.3-1.3-6.8-1-10.3C2.6,19.7,4.6,15,7.9,10.9
	s7.5-6.8,12.5-8.3C23,1.9,25.6,1.6,28.2,1.6z M49.1,27.7c0-4.9-1.3-9.3-4.4-13.1c-3.7-4.6-8.6-7.3-14.5-8c-5.7-0.7-10.8,1-15.3,4.5
	c-4.3,3.4-6.8,7.9-7.7,13.4C6.7,28.4,7,32.3,8.5,36c3.5,8.4,12.3,14.4,23,12.6c4.5-0.7,8.4-2.7,11.6-6
	C47.2,38.5,49.1,33.4,49.1,27.7z"/>
<path class="st0" d="M63.7,52.5c0-0.3,0-0.6,0-0.8c0-9.6,0-19.3,0-28.9c0-3.2,0.3-6.4,1.4-9.5c1.2-3.3,3.1-6,6-7.9
	c2.1-1.4,4.4-2.2,6.8-2.7C81.8,2,85.7,2,89.6,3c5.6,1.4,9.5,4.7,11.6,10.1c1.1,3,1.4,6.1,1.4,9.2c0,9.7,0,19.5,0,29.2c0,1,0,1-0.9,1
	c-1.6,0-3.2,0-4.8,0c-0.6,0-0.8-0.2-0.8-0.8c0-9.9,0-19.8,0-29.7c0-2-0.2-3.9-0.6-5.8c-1-4.1-3.4-6.8-7.6-7.8
	c-3.3-0.8-6.6-0.8-9.9,0.1c-3.7,1-5.9,3.4-7,7c-0.7,2.2-0.8,4.4-0.8,6.7c0,9.8,0,19.6,0,29.4c0,0.9,0,0.9-0.9,0.9
	c-1.6,0-3.2,0-4.8,0C64.3,52.5,64.1,52.5,63.7,52.5z"/>
<circle class="st1" cx="28.2" cy="27.6" r="4.4"/>
<circle class="st1" cx="43.4" cy="27.5" r="2.9"/>
<circle class="st1" cx="12.7" cy="27.5" r="2.9"/>
<path d="M124.7,21.8c-0.4,0.4-0.7,0.8-1,1.2c-1.8,1.9-4.1,2-6.4,1.4c-2.1-0.6-3.1-2.3-3.5-4.4c-0.2-0.9-0.2-1.9-0.2-2.8
	c0-4.4,0-8.8,0-13.2c0-0.5,0.1-0.7,0.7-0.7c1.6,0,3.2,0,4.8,0c0.6,0,0.8,0.1,0.8,0.8c0,4.3,0,8.5,0,12.8c0,0.3,0,0.7,0.1,1
	c0,0.3,0.2,0.6,0.6,0.6c0.4,0,0.7-0.1,0.9-0.5s0.1-0.8,0.1-1.2c0-4.3,0-8.6,0-12.9c0-0.6,0.1-0.7,0.7-0.7c1.6,0,3.2,0,4.8,0
	c0.6,0,0.7,0.2,0.7,0.8c0,4.2,0,8.4,0,12.7c0,0.4,0,0.8,0.1,1.2c0.1,0.3,0.3,0.6,0.7,0.6s0.7-0.2,0.8-0.5c0.2-0.4,0.2-0.8,0.2-1.3
	c0-4.2,0-8.5,0-12.7c0-0.6,0.2-0.7,0.8-0.7c1.6,0,3.3,0,4.9,0c0.4,0,0.6,0.1,0.6,0.6c0,4.9,0,9.8,0,14.6c0,3.2-1.8,5.5-4.7,6.1
	C128.5,25,126.3,24.4,124.7,21.8z"/>
<path d="M165,14.9c-0.8-0.5-1.5-0.7-2.2-0.3c-0.9,0.4-1.5,1.4-1.3,2.4s1,1.8,2.1,1.8c1.1,0.1,1.8-0.5,2.2-1.6
	c0.1-0.5,0.2-0.9,0.2-1.4c0-4,0-7.9,0-11.9c0-0.6,0.2-0.7,0.7-0.7c1.5,0,3,0,4.5,0c0.4,0,0.5,0.1,0.5,0.5c0,4.2,0,8.3,0,12.5
	s-2.3,7.2-6.4,8c-4.3,0.9-8.3-1.7-9.3-5.6c-1.2-4.5,1.4-8.8,5.9-9.9c0.9-0.2,1.9-0.2,2.9-0.1c0.3,0,0.3,0.2,0.3,0.4
	C165,11,165,12.9,165,14.9z"/>
<path d="M217.1,19.3c0,1.4,0,2.9,0,4.3c0,0.4-0.1,0.6-0.5,0.6c-1.5,0-3,0-4.6,0c-0.5,0-0.6-0.1-0.6-0.6c0-2.5,0-5.1,0-7.6
	c0-0.3,0-0.7-0.1-1c-0.1-0.5-0.4-0.7-0.9-0.7s-0.8,0.1-1.1,0.6c-0.1,0.3-0.1,0.6-0.1,0.9c0,2.6,0,5.3,0,7.9c0,0.5-0.1,0.6-0.6,0.6
	c-1.5,0-3,0-4.6,0c-0.4,0-0.6-0.1-0.6-0.6c0-2.7,0-5.4,0-8.1s1.2-4.8,3.6-6.1c2.2-1.2,4.6-1.1,6.8,0.2c2.1,1.2,3,3.1,3.1,5.5
	C217.2,16.4,217.1,17.9,217.1,19.3L217.1,19.3z"/>
<path d="M185.1,16.5c0-4.5,3.6-7.9,8.3-7.9c4.3,0,7.8,3.6,7.8,8s-3.6,7.9-8,7.9C188.6,24.5,185.1,20.9,185.1,16.5z"/>
<path d="M149.7,17.5c-1.3,0-2.6,0-3.9,0c-0.3,0-0.5-0.1-0.6-0.4c-0.2-0.7-0.1-1.3,0.1-2c0.1-0.3,0.2-0.3,0.5-0.3c0.7,0,1.4,0,2.2,0
	c0.4,0,0.4-0.1,0.3-0.4c-0.4-1.3-2.1-1.7-3.2-0.7c-1.4,1.2-1.4,4.3,0,5.5c0.7,0.7,1.8,0.7,2.7,0c0.3-0.3,0.5-0.2,0.7,0.1
	c0.9,1.1,1.7,2.1,2.6,3.2c0.3,0.3,0.2,0.5-0.1,0.7c-4.9,3.4-11.6,0.7-12.6-5c-0.7-4.1,1.7-7.9,5.5-9.1c4.1-1.2,8.2,0.7,9.7,4.5
	c0.4,1.1,0.6,2.2,0.6,3.4c0,0.5-0.2,0.7-0.7,0.7C152.2,17.4,150.9,17.5,149.7,17.5z"/>
<path class="st1" d="M158.9,53c-3,0.1-5.4-0.8-7.2-2.9c-1.2-1.4-1.9-3-2.1-4.8c-0.2-1.5-0.1-2.9,0.4-4.3c1.2-3.1,3.4-5.1,6.7-5.8
	c3.5-0.8,6.5,0.3,9.1,2.6c0.4,0.4,0.5,0.7,0,1.1c-0.5,0.4-0.9,0.8-1.3,1.3c-0.4,0.4-0.7,0.3-1,0c-1-0.9-2.1-1.5-3.4-1.8
	c-3.5-0.9-7.2,1.8-7.2,5.5c0,2,0.6,3.7,2.2,4.9c0.9,0.7,1.9,1.1,3.1,1.2c2.1,0.2,3.8-0.5,5.3-2c0.4-0.4,0.6-0.4,1,0
	c0.4,0.5,0.9,0.9,1.4,1.4c0.2,0.2,0.3,0.5,0,0.7c-1.4,1.3-2.8,2.3-4.7,2.7C160.3,53,159.5,52.9,158.9,53z"/>
<path class="st1" d="M210.2,52.9c-2.2,0.2-4.3-0.4-6-1.9c-1.7-1.4-2.8-3.3-3-5.6c-0.1-1.2-0.2-2.4,0.1-3.6c0.5-2.3,1.7-4.1,3.7-5.4
	c2-1.4,4.3-1.8,6.6-1.5s4.3,1.3,5.9,3c0.3,0.3,0.3,0.4,0,0.7c-0.5,0.5-1.1,1-1.6,1.6c-0.3,0.3-0.5,0.1-0.8-0.1c-1.1-1-2.4-1.7-3.9-2
	c-2.5-0.5-5.3,0.9-6.4,3.4c-0.9,2.1-0.7,4.1,0.6,6c0.7,1,1.6,1.7,2.8,2c2.6,0.8,4.9,0.2,6.8-1.7c0.4-0.4,0.6-0.3,0.9,0
	c0.5,0.5,0.9,1,1.4,1.5c0.2,0.2,0.3,0.4,0,0.6c-1.5,1.5-3.2,2.5-5.3,2.9C211.5,53,210.8,52.9,210.2,52.9z"/>
<path class="st1" d="M113.3,43.9c0-2.5,0-5,0-7.5c0-1,0-1,1-1c2.6,0,5.1,0,7.7,0c0.6,0,0.8,0.2,0.8,0.8s0,1.2,0,1.8
	c0,0.5-0.1,0.7-0.6,0.7c-1.7,0-3.3,0-5,0c-0.5,0-0.7,0.1-0.7,0.7c0,0.6,0,1.2,0,1.8c0,0.5,0.2,0.7,0.7,0.7c1.6,0,3.3,0,4.9,0
	c0.5,0,0.7,0.1,0.6,0.6c0,0.6,0,1.3,0,1.9c0,0.6-0.2,0.6-0.7,0.6c-1.7,0-3.3,0-5,0c-0.5,0-0.7,0.1-0.6,0.6c0,1,0,2.1,0,3.1
	c0,0.7,0.2,0.9,0.9,0.8c1.6-0.2,3.1,0,4.7-0.1c0.5,0,0.7,0.2,0.7,0.7c0,0.7,0,1.3,0,2c0,0.4-0.1,0.6-0.6,0.6c-2.8,0-5.6,0-8.4,0
	c-0.4,0-0.5-0.2-0.6-0.5c0-0.4,0-0.9,0-1.3C113.3,48.5,113.3,46.2,113.3,43.9z"/>
<path class="st1" d="M137.4,43.9c0-2.7,0-5.3,0-8c0-0.5,0.2-0.7,0.7-0.7c2.7,0,5.4,0,8.1,0c0.5,0,0.7,0.1,0.7,0.7c0,0.6,0,1.3,0,1.9
	c0,0.6-0.1,0.8-0.7,0.7c-1.6,0-3.2,0-4.8,0c-0.5,0-0.6,0.2-0.6,0.6c0,0.6,0,1.2,0,1.8c0,0.5,0.2,0.7,0.7,0.7c1.6,0,3.2,0,4.8,0
	c0.5,0,0.7,0.1,0.6,0.6c0,0.6,0,1.3,0,1.9c0,0.5-0.2,0.7-0.7,0.6c-1.6,0-3.2,0-4.8,0c-0.5,0-0.7,0.2-0.7,0.7c0,1,0,2.1,0,3.1
	c0,0.6,0.2,0.7,0.7,0.7c1.6,0,3.2,0,4.8,0c0.5,0,0.6,0.2,0.6,0.6c0,0.7,0,1.4,0,2.2c0,0.4-0.1,0.5-0.5,0.5c-2.8,0-5.6,0-8.4,0
	c-0.5,0-0.5-0.3-0.5-0.6C137.4,49.3,137.4,46.6,137.4,43.9z"/>
<path d="M173.1,21.5c0-0.8,0-1.7,0-2.5c0-0.3,0.1-0.5,0.5-0.5c1.7-0.1,2.3-0.7,2.5-2.4c0.1-0.9,0.1-1.9,0.3-2.8
	c0.4-2.1,2.2-3.7,4.5-4.1c1-0.2,2-0.1,2.9-0.1c0.3,0,0.4,0.1,0.4,0.4c0,1.8,0,3.5,0,5.3c0,0.3-0.1,0.4-0.4,0.4
	c-1.4,0.2-1.6,0.5-1.8,1.9c-0.2,1.1-0.3,2.2-0.7,3.3c-1.1,2.6-3,4-5.8,4.2c-0.6,0.1-1.3,0.1-2,0.1c-0.4,0-0.4-0.1-0.4-0.4
	C173.1,23.3,173.1,22.4,173.1,21.5z"/>
<path class="st1" d="M174.3,45.7c0,2.1,0,4.2,0,6.3c0,0.5-0.1,0.7-0.6,0.7c-0.6,0-1.3,0-2,0c-0.5,0-0.7-0.2-0.7-0.7
	c0-4.1,0-8.1,0-12.2c0-1.3,0.2-1.1-1.1-1.1c-0.5,0-1,0-1.5,0c-0.3,0-0.5-0.1-0.5-0.5c0-0.8,0-1.6,0-2.4c0-0.3,0.1-0.5,0.5-0.5
	c2.9,0,5.7,0,8.6,0c0.3,0,0.4,0.1,0.4,0.4c0,0.8,0,1.6,0,2.4c0,0.4-0.2,0.4-0.5,0.4c-0.7,0-1.4,0-2.1,0c-0.5,0-0.6,0.2-0.6,0.6
	C174.3,41.4,174.3,43.5,174.3,45.7z"/>
<path class="st1" d="M126.3,44c0-2.6,0-5.2,0-7.8c0-0.6,0.1-0.9,0.8-0.8c0.6,0,1.2,0,1.8,0s0.7,0.1,0.7,0.7c0,2.7,0,5.3,0,8
	c0,1.6,0,3.2,0,4.8c0,0.5,0.1,0.7,0.6,0.6c1.1,0,2.2,0,3.3,0c0.5,0,1,0.1,0.8,0.8c-0.1,0.5-0.1,1,0.1,1.6c0.1,0.5,0,0.8-0.6,0.8
	c-2.3,0-4.5,0-6.8,0c-0.5,0-0.7-0.1-0.7-0.7C126.3,49.3,126.3,46.6,126.3,44L126.3,44z"/>
<path class="st1" d="M194.4,43.9c0-2.6,0-5.3,0-7.9c0-0.5,0.1-0.7,0.6-0.7c0.6,0,1.3,0,2,0c0.6,0,0.7,0.2,0.7,0.7
	c0,4.1,0,8.1,0,12.2c0,1.3,0,2.5,0,3.8c0,0.4-0.1,0.6-0.6,0.6c-0.7,0-1.4,0-2.2,0c-0.5,0-0.6-0.2-0.6-0.6
	C194.4,49.3,194.4,46.6,194.4,43.9z"/>
<path class="st1" d="M190.6,16.3c0-1.4,1.1-2.5,2.4-2.5c1.4,0,2.5,1.1,2.5,2.5c0,1.3-1.1,2.5-2.4,2.5
	C191.7,18.9,190.6,17.7,190.6,16.3z"/>
<path class="st1" d="M193,12.2c-0.8,0-1.4-0.6-1.4-1.5c0-0.8,0.7-1.4,1.5-1.4s1.5,0.7,1.4,1.5C194.5,11.6,193.8,12.2,193,12.2z"/>
<path class="st1" d="M193,23.5c-0.8,0-1.5-0.6-1.4-1.4c0-0.8,0.7-1.4,1.5-1.4s1.5,0.7,1.5,1.5C194.5,22.9,193.8,23.5,193,23.5z"/>
<path class="st1" d="M191.3,52.1c-0.5-0.9-1-1.8-1.5-2.7c-0.7-1.3-1.4-2.6-2.1-3.9c-0.2-0.4-0.2-0.6,0.2-0.7c0.3-0.1,0.7-0.3,1-0.5
	c1.8-1.4,2.3-3.7,1.5-5.8c-0.6-1.7-2-2.7-3.8-3c-1.7-0.2-3.4-0.1-5.1-0.2c-0.6,0-1.1,0-1,0.9c0,0.3-0.1,0.6-0.1,0.8c0,2.3,0,4.7,0,7
	l0,0c0,2,0,3.9,0,5.9c0,0.6,0,1.3,0,1.9c0,0.6,0.2,0.9,0.9,0.8c0.6-0.1,1.1-0.1,1.7,0c0.6,0,0.7-0.2,0.7-0.7c0-1.4,0-2.7,0-4.1
	c0-0.6,0-1.3,0-1.9c0-0.2-0.1-0.4,0.2-0.5s0.3,0.2,0.4,0.3c0,0.1,0.1,0.2,0.1,0.2c1.1,2.1,2.2,4.1,3.2,6.2c0.1,0.3,0.3,0.4,0.7,0.4
	c0.9,0,1.7,0,2.6,0C191.3,52.6,191.5,52.5,191.3,52.1z M186.2,42c-0.7,0.1-1.3,0-2,0c-0.3,0-0.5-0.1-0.4-0.5c0-0.4,0-0.8,0-1.2
	c0-1.7,0-1.7,1.7-1.7c1.2,0,1.8,0.4,2.1,1.4C187.7,41,187.1,41.9,186.2,42z"/>
</svg>
